<svg width="55" height="39" viewBox="0 0 55 39" fill="none" xmlns="http://www.w3.org/2000/svg">
<path d="M25.457 3.72414C22.7922 1.41068 19.3162 0 15.4347 0C7.09244 0 0.372283 6.54554 0.372283 14.671C0.372283 17.6052 1.24127 20.3138 2.74746 22.5708L0.0826215 28.4393C-0.264934 29.2293 0.546158 30.0757 1.35704 29.6806L7.32407 27.0286C9.64137 28.4956 12.4801 29.342 15.4346 29.342C16.1297 29.342 16.7672 29.2856 17.4622 29.2293C16.3036 26.69 15.6664 23.9251 15.6664 20.9909C15.6664 13.7118 19.6059 7.33555 25.457 3.72422L25.457 3.72414Z" fill="#6D5BE0"/>
<path d="M54.8865 37.2983L51.6423 30.3577C53.4382 27.6491 54.4811 24.3765 54.4811 20.9344C54.4811 11.2854 46.4285 3.44202 36.522 3.44202C26.6156 3.44202 18.563 11.2854 18.563 20.9344C18.563 30.5834 26.6156 38.4268 36.522 38.4268C40.1137 38.4268 43.416 37.411 46.1967 35.6618L53.3224 38.8217C54.3072 39.2732 55.3499 38.2576 54.8865 37.2983ZM43.5897 25.7307C44.169 26.295 44.169 27.1978 43.5897 27.762C43.3 28.0442 42.8946 28.157 42.5468 28.157C42.1992 28.157 41.7936 28.0442 41.5039 27.762L36.5797 22.9657L31.6554 27.762C31.3658 28.0442 30.9603 28.157 30.6125 28.157C30.2071 28.157 29.8593 28.0442 29.5697 27.762C28.9903 27.1978 28.9903 26.295 29.5697 25.7307L34.4939 20.9344L29.5697 16.1381C28.9903 15.5738 28.9903 14.6711 29.5697 14.1068C30.149 13.5425 31.0759 13.5425 31.6552 14.1068L36.5794 18.9031L41.5037 14.1068C42.083 13.5425 43.0099 13.5425 43.5892 14.1068C44.1685 14.6711 44.1685 15.5738 43.5892 16.1381L38.665 20.9344L43.5897 25.7307Z" fill="#6D5BE0"/>
</svg>
