<svg width="68" height="53" viewBox="0 0 68 53" fill="none" xmlns="http://www.w3.org/2000/svg">
<path d="M7.28571 0H60.7143C62.6465 0 64.4998 0.761402 65.8662 2.11672C67.2325 3.47211 68 5.31054 68 7.22727V45.7727C68 47.6895 67.2324 49.5279 65.8662 50.8833C64.4998 52.2387 62.6465 53 60.7143 53H7.28571C5.35348 53 3.50018 52.2386 2.13384 50.8833C0.76749 49.5279 -2.20537e-06 47.6895 -2.20537e-06 45.7727V7.22727C-2.20537e-06 5.31054 0.767554 3.47211 2.13384 2.11672C3.50018 0.761337 5.35348 0 7.28571 0ZM7.28571 4.81818C6.89183 4.82195 6.50604 4.9301 6.16857 5.13136H6.38714L32.2757 25.9703C32.7799 26.3239 33.3825 26.5139 34 26.5139C34.6175 26.5139 35.2201 26.3239 35.7243 25.9703L61.6129 5.22773H61.8314C61.5038 4.99234 61.1176 4.8508 60.7143 4.81818H7.28571ZM7.28571 48.1818H60.7143C61.3584 48.1818 61.9761 47.9281 62.4315 47.4762C62.8871 47.0245 63.1429 46.4117 63.1429 45.7727V10.1901L38.8571 29.7038C37.4855 30.751 35.8035 31.3186 34.0729 31.3186C32.3422 31.3186 30.6602 30.751 29.2886 29.7038L5.00286 10.1901V45.7727C5.00184 46.3873 5.23762 46.9793 5.66187 47.427C6.08637 47.8749 6.66717 48.1449 7.28571 48.1818Z" fill="#FDFBFA"/>
</svg>
