<svg width="52" height="53" viewBox="0 0 52 53" fill="none" xmlns="http://www.w3.org/2000/svg">
<path d="M22.5223 0C16.0224 0 10.7236 4.8048 10.7236 10.7077C10.7236 16.6103 16.0227 21.4153 22.5223 21.4153C29.0218 21.4153 34.3127 16.6105 34.3127 10.7077C34.3127 4.80505 29.0217 0 22.5223 0Z" fill="#6D5BE0"/>
<path d="M18.2306 23.3624C8.14909 23.3624 0 30.7611 0 39.9123V47.6939L0.000354718 47.6942C-0.000709458 47.9528 0.111388 48.2011 0.312154 48.3843C0.512921 48.5675 0.785698 48.6709 1.07054 48.6716H31.3259C30.4997 47.2102 30.0233 45.5602 30.0233 43.8085C30.0233 37.9078 35.316 33.0975 41.8183 33.0975C42.3809 33.0975 42.9311 33.1458 43.4728 33.2154C40.6428 27.411 34.2558 23.3634 26.805 23.3634L18.2306 23.3624Z" fill="#6D5BE0"/>
<path d="M41.8176 35.0436C36.4741 35.0436 32.1675 38.9594 32.1675 43.8083C32.1675 48.6572 36.4745 52.5655 41.8176 52.5655C47.1607 52.5655 51.4678 48.6572 51.4678 43.8083C51.4678 38.9594 47.1607 35.0436 41.8176 35.0436ZM47.5162 40.1405C47.9596 40.1286 48.365 40.3656 48.5367 40.7369C48.7083 41.1079 48.6108 41.5368 48.2912 41.8157L40.8524 48.5687C40.4338 48.9461 39.7585 48.9461 39.3403 48.5687L34.6218 44.2929C34.4136 44.1113 34.2948 43.8611 34.2919 43.5987C34.2891 43.3366 34.4026 43.0844 34.6069 42.8993C34.8116 42.7138 35.0893 42.6111 35.3784 42.614C35.6672 42.6169 35.9424 42.725 36.1425 42.9144L40.0923 46.5078L46.7791 40.4355C46.9735 40.2539 47.2377 40.1482 47.5162 40.1405Z" fill="#6D5BE0"/>
</svg>
