<svg width="53" height="49" viewBox="0 0 53 49" fill="none" xmlns="http://www.w3.org/2000/svg">
<path d="M0.0255661 20.7458C-0.139797 19.0984 0.506023 17.5038 1.70311 16.3904C0.506069 15.277 -0.139767 13.6825 0.0255661 12.0351C0.269646 9.643 2.28607 7.70221 4.79841 7.28861C4.49921 6.59663 4.39666 5.75408 4.49921 4.76874C4.75123 2.36909 6.93279 0.992711 10.477 0.992711L25.2368 1.04536H25.3076L27.8988 1.21088C27.8988 1.21088 27.9539 1.21088 27.9855 1.21847C32.0732 1.7677 35.4441 2.81325 38.0905 4.31769C38.4922 1.87297 40.7054 0 43.3754 0H47.6441C50.5977 0 53 2.2944 53 5.11523V30.7359C53 33.5567 50.5977 35.8511 47.6441 35.8511H43.3754C40.721 35.8511 38.5159 34.0006 38.0985 31.5785C37.5629 31.9622 36.9878 32.3532 36.3736 32.7519C31.4038 35.9564 29.9545 39.4692 28.6708 42.5684C28.3321 43.3808 28.017 44.1556 27.6467 44.8777C26.0243 48.0597 24.0394 49 22.2517 49C21.5036 49 20.7947 48.8345 20.1645 48.6014C15.7144 46.9539 16.9037 42.2451 17.2976 40.703C17.7308 38.988 18.7625 35.949 19.4004 34.1211H5.60938C4.03416 34.1211 2.52201 33.4818 1.46648 32.3684C0.411217 31.2549 -0.116676 29.7505 0.0330353 28.2461C0.182758 26.7115 1.06474 25.365 2.33279 24.4925C1.06474 23.6125 0.182484 22.2736 0.0250931 20.739L0.0255661 20.7458ZM40.3905 30.7428C40.3905 32.3224 41.7373 33.6014 43.3836 33.6014H47.6523C49.3063 33.6014 50.6454 32.3151 50.6454 30.7428V5.12215C50.6454 3.54255 49.2986 2.26359 47.6523 2.26359H43.3836C41.7297 2.26359 40.3905 3.54989 40.3905 5.12215V30.7428ZM4.05812 15.2621H8.84685C9.50063 15.2621 10.0283 15.766 10.0283 16.3904C10.0283 17.0148 9.50063 17.5188 8.84685 17.5188H4.05812C2.90821 18.113 2.2545 19.2715 2.38058 20.5276C2.538 22.0923 4.04244 23.3107 5.79867 23.3107H8.95705C9.39803 23.3107 9.80774 23.5438 10.0046 23.92L10.0598 24.0253C10.2487 24.3712 10.2331 24.7924 10.0203 25.1311C9.80774 25.4695 9.42162 25.6727 9.0122 25.6727H5.79102C4.03452 25.6727 2.53031 26.8988 2.3806 28.4635C2.29394 29.3511 2.58545 30.201 3.20772 30.8555C3.82202 31.5024 4.6963 31.871 5.60205 31.871H21.0392C21.4174 31.871 21.7796 32.0441 22.0001 32.3448C22.2206 32.6381 22.2837 33.0218 22.1576 33.3678C22.1419 33.4204 20.1965 38.8439 19.5899 41.2435C18.621 45.0649 19.7711 46.0502 21.0154 46.5091C22.3386 46.9981 23.9058 47.0733 25.5206 43.9064C25.8513 43.2671 26.1508 42.5298 26.4736 41.7551C27.8124 38.5204 29.4823 34.4886 35.0506 30.893C36.2006 30.1483 37.1771 29.4561 38.0198 28.7641V6.97981C35.5467 5.24224 32.1127 4.06125 27.6942 3.467L25.1817 3.30906L10.4613 3.25642C8.89402 3.25642 6.98781 3.55736 6.83836 5.00157C6.77529 5.58067 6.78324 6.34805 7.1691 6.73914C7.48419 7.06261 8.08286 7.18283 8.72075 7.21295H9.7604C10.4062 7.21295 10.9262 7.70194 10.9418 8.31878C10.9574 8.93561 10.4534 9.44711 9.80759 9.46961C9.43738 9.48455 9.05148 9.48455 8.66569 9.46961H5.78291C4.02641 9.46961 2.52221 10.6957 2.36481 12.2527C2.23867 13.5089 2.89246 14.6673 4.04236 15.2616L4.05812 15.2621Z" fill="#6D5BE0"/>
</svg>
