<?xml version="1.0" encoding="UTF-8"?>
<svg id="Layer_2" data-name="Layer 2" xmlns="http://www.w3.org/2000/svg" viewBox="0 0 58.34 32.5">
  <g id="Layer_1-2" data-name="Layer 1">
    <path d="m57.44,23.04c-8.03,4.33-43.1,14.98-48.8,5.92-1.86-3.17-.24-7.61,2.76-9.34,9.75-5.69,22.18-5.93,30.67-13.81,1.44-1.41,2.59-3.14,3.2-5.08l.24.07c-2.58,8.27-11.93,11.38-19.21,14.3-3.83,1.45-7.76,2.72-11.35,4.48-1.74.89-3.54,1.96-4.37,3.39-5.74,13.99,28.38,3.24,33.85,1.24,3.63-1.31,7.56-2.64,10.86-4.57,0,0,2.17,3.38,2.17,3.38h0Z"/>
    <polygon points="57.26 26.9 57.8 23.34 58.34 19.77 54.8 19.23 51.25 18.7 51.25 18.71 51.25 18.71 56.17 21.16 57.25 26.9 57.26 26.9 57.26 26.9"/>
    <path d="m45.36,0c1.67,15.17-16.36,24.26-29.46,22.66,3.42-.36,6.77-.99,9.96-2.05,9.48-3.02,18.04-10.33,19.49-20.61h0Z"/>
    <path d="m38.36,18.29c-1.56,3.89-5.81,6.42-9.85,7.06-4.26.11-9.11-.18-12.66-2.85,2.09.58,4.15.84,6.23.93,1.92.08,4.58-.02,6.2-.06,3.61-.64,7.42-2.42,10.08-5.08h0Z"/>
    <path d="m26.61,26.99c-2.41,3.39-9.31-.66-10.77-3.53,1.37.54,4.11,1.62,5.48,2.15,1.66.58,3.54,1.58,5.29,1.38h0Z"/>
    <path d="m7.03,21.76c-4.8-1.25-5.71-6.31-1.95-9.42,3.59-3.05,8.45-1.5,9.38,3.16-1.81-3.55-5.31-4.85-8.53-2.14-3.3,2.78-2.4,6.34,1.1,8.4h0Z"/>
    <path d="m2.3,15.04c-.41-.65-1.92-3.05-2.3-3.65.68.12,3.44.62,4.17.75,0,.01-3.16.43-3.16.43,0,0,.47-.7.47-.7,0,0,.85,3.17.83,3.16h0Z"/>
  </g>
</svg>