<?xml version="1.0" encoding="UTF-8"?>
<svg id="Layer_2" data-name="Layer 2" xmlns="http://www.w3.org/2000/svg" viewBox="0 0 37.64 44.19">
  <g id="Layer_1-2" data-name="Layer 1">
    <g>
      <path d="m24.02,21.67l-6.14,13.61-1.68-12.81c-3.25.2-6.54.27-9.83.29l-3.44,21.43h5.37l2.96-18.26,2.3,18.26h5.89l8.25-18.26-2.96,18.26h5.37l3.99-24.86c-3.25,1.08-6.62,1.82-10.06,2.34Z"/>
      <path d="m36.88,14.57c-4.54,2.71-36.3,12.56-30.92-.34.85-1.29,2.14-1.91,3.33-2.49,2.45-1.1,4.99-1.82,7.48-2.67,4.69-1.71,10.63-3.42,12.46-8.6,0,0,.09.03.09.03-.35,1.28-1.07,2.45-1.99,3.41-2.81,2.87-6.7,4.31-10.37,5.7-2.47.92-4.99,1.73-7.32,2.86-1.13.57-2.3,1.25-2.88,2.23-3.74,9.34,18.24,2.43,21.98,1.12,2.33-.83,4.98-1.73,7.06-2.94,0,0,1.08,1.68,1.08,1.68h0Z"/>
    </g>
    <polygon points="36.95 17.36 37.3 15.07 37.64 12.77 35.36 12.43 33.08 12.08 33.08 12.09 33.08 12.09 36.25 13.67 36.94 17.36 36.95 17.36 36.95 17.36"/>
    <path d="m29.27,0c.63,9.66-10.51,15.27-18.95,14.57,2.2-.14,4.37-.52,6.45-1.16,6.14-1.86,11.9-6.69,12.49-13.42h0Z"/>
    <path d="m24.76,11.77c-1.25,2.36-3.93,4.18-6.66,4.32-2.64.06-5.54-.13-7.82-1.61,2.54.9,5.16.88,7.8.79,2.45-.17,5-1.68,6.68-3.5h0Z"/>
    <path d="m17.08,16.74c-.96.89-2.61.7-3.66.11-1.14-.52-2.26-1.18-3.1-2.12,2,1.15,4.38,2.85,6.76,2.02h0Z"/>
    <path d="m4.6,14.02c-5.43-1.4-2.07-8.31,2.51-6.96,1.27.44,2.01,1.68,2.28,2.91-.61-1.04-1.43-1.99-2.49-2.21-2.02-.44-4.41,1.54-4.23,3.6.08,1.04.97,1.91,1.96,2.6.04.02.02.03,0,.06,0,0-.03,0-.03,0h0Z"/>
    <path d="m1.57,9.68c-.86-.58-1.22-1.53-1.57-2.44,0,0,.76.04.76.04.71.04,1.38.16,2.02.54-.33.2-.69.29-1.03.36-.34.07-.68.09-1.02.09l.46-.69c.3.67.48,1.34.37,2.1h0Z"/>
  </g>
</svg>