<?xml version="1.0" encoding="UTF-8"?>
<svg id="Layer_2" data-name="Layer 2" xmlns="http://www.w3.org/2000/svg" viewBox="0 0 113.93 36.92">
  <g id="Layer_1-2" data-name="Layer 1">
    <g>
      <path d="m16.19,14.65l-4.15,9.2-1.14-8.66c-2.2.14-4.42.19-6.65.2l-2.33,14.48h3.63l2-12.35,1.55,12.35h3.98l5.58-12.35-2,12.35h3.63l2.7-16.8c-2.19.73-4.47,1.23-6.8,1.58Z"/>
      <path d="m39.47,15.5h-3.63l-.25,1.59c-.58-1.04-2.03-1.83-3.78-1.83-4.33,0-7.83,3.94-7.83,8.76,0,3.89,2.43,6.1,5.43,6.1,1.73,0,3.45-.77,4.38-1.83l.23,1.59h4.05l-.45-2.82,1.85-11.55Zm-8.81,10.9c-1.8,0-2.9-1.26-2.9-2.98,0-2.41,1.88-4.41,4.1-4.41,1.78,0,2.9,1.29,2.9,3.01,0,2.35-1.88,4.38-4.1,4.38Z"/>
      <path d="m42.75,15.5h3.68l-.4,2.38,4.9-2.71-.73,4.35-4.83,2.38-1.28,7.97h-3.68l2.33-14.37Z"/>
      <path d="m53.94,9.61h3.63l-1.63,10.24h1.4l3.48-4.35h4.25l-5.05,6.49,2.8,7.88h-4l-2.03-5.97h-1.53l-.95,5.97h-3.63l3.25-20.26Z"/>
      <path d="m66.76,15.5h3.63l-2.33,14.37h-3.63l2.33-14.37Zm2.9-6.9c1.15,0,1.93.79,1.93,1.97,0,1.59-1.25,2.9-2.7,2.9-1.15,0-1.93-.79-1.93-1.97,0-1.56,1.23-2.9,2.7-2.9Z"/>
      <path d="m73.97,19.2h-2.1l.6-3.7h2.18l.53-3.37h3.55l-.53,3.37h3.13l-.6,3.7h-3.13l-1.1,6.84h3.18l-.63,3.83h-6.81l1.73-10.68Z"/>
      <path d="m84.16,19.2h-2l.6-3.7h2.08l.95-5.89h5.98l-.58,3.56h-2.43l-.38,2.33h3.05l-.6,3.7h-3.05l-2.83,16.94h-3.63l2.83-16.94Z"/>
      <path d="m94.62,9.61h3.63l-3.25,20.26h-3.63l3.25-20.26Z"/>
      <path d="m102.19,29.54l-1.41-7.02-1.41-7.02h4l.83,4.82.83,4.82,2.25-4.82,2.25-4.82h4.4l-5.33,10.32-3.6,9.51c-.36.96-1.29,1.6-2.32,1.59h-2.78s-51.45-.51-51.45-.51l51.39-2.13c.47,0,.88-.31,1.03-.76l1.32-3.98Z"/>
      <path d="m24.97,9.99c-3.74,1.91-18.39,6.52-21.18,2.59-.57-.97-.36-2.03.13-2.99.6-.9,1.48-1.31,2.29-1.7,4.63-2.13,11.24-2.51,13.58-7.54-1.13,3.6-5.18,4.93-8.35,6.2-2.28.99-5.27,1.47-6.85,3.43-2.39,6.17,12.26,1.45,14.75.59,1.55-.56,3.36-1.18,4.73-1.99,0,0,.9,1.4.9,1.4h0Z"/>
    </g>
    <polygon points="24.93 11.74 25.17 10.19 25.4 8.64 23.86 8.4 22.32 8.17 22.32 8.17 22.32 8.18 24.46 9.24 24.93 11.74 24.93 11.74 24.93 11.74"/>
    <path d="m19.74,0c.69,6.6-7.11,10.51-12.81,9.85,1.49-.14,2.94-.42,4.34-.87,4.11-1.35,7.85-4.45,8.47-8.98h0Z"/>
    <path d="m16.7,7.95c-.78,1.7-2.59,2.95-4.5,3.06-.9.01-1.83,0-2.74-.18-.91-.17-1.81-.5-2.55-1.04,3.4.82,7.17.81,9.79-1.83h0Z"/>
    <path d="m11.5,11.32c-1.37,1.25-3.57-.25-4.57-1.36,1.41.72,2.95,1.79,4.57,1.36h0Z"/>
    <path d="m3.07,9.48c-3.55-1.03-1.35-5.48,1.68-4.64.88.3,1.36,1.13,1.56,1.91-.38-.72-.93-1.38-1.67-1.55-1.42-.33-3.09,1.05-2.94,2.51.06.74.72,1.33,1.4,1.76,0,0-.01.02-.01.02h-.01Z"/>
    <path d="m1.02,6.54c-.56-.43-.77-1.02-1.02-1.61,0,0,.47.03.47.03.44.03.95.09,1.36.33-.46.2-.92.25-1.38.26l.28-.41c.19.43.33.88.29,1.41h0Z"/>
  </g>
</svg>