<?xml version="1.0" encoding="UTF-8"?>
<svg id="Layer_2" data-name="Layer 2" xmlns="http://www.w3.org/2000/svg" viewBox="0 0 65.98 36.83">
  <defs>
    <style>
      .cls-1 {
        fill: none;
        stroke: #000;
        stroke-miterlimit: 10;
        stroke-width: .6px;
      }
    </style>
  </defs>
  <g id="Layer_1-2" data-name="Layer 1">
    <g>
      <path d="m25.95,14.65l-4.15,9.2-1.14-8.66c-2.2.14-4.42.19-6.65.2l-2.33,14.48h3.63l2-12.35,1.55,12.35h3.98l5.58-12.35-2,12.35h3.63l2.7-16.8c-2.19.73-4.47,1.23-6.8,1.58Z"/>
      <path class="cls-1" d="m35.71,18.08h-2l.6-3.42h2.08l.95-5.44h5.98l-.58,3.29h-2.43l-.38,2.15h3.05l-.6,3.42h-3.05l-2.83,15.67h-3.63l2.83-15.67Z"/>
      <path class="cls-1" d="m46.18,9.22h3.63l-3.25,20.26h-3.63l3.25-20.26Z"/>
      <path class="cls-1" d="m53.75,29.15l-1.41-7.02-1.41-7.02h4l.83,4.82.83,4.82,2.25-4.82,2.25-4.82h4.4l-5.33,10.32-3.6,9.51c-.36.96-1.29,1.6-2.32,1.59h-2.78S.01,36.02.01,36.02l51.39-2.13c.47,0,.88-.31,1.03-.76l1.32-3.98Z"/>
      <path d="m34.73,9.99c-3.75,1.91-18.39,6.52-21.18,2.59-.57-.97-.36-2.03.13-2.99.6-.9,1.48-1.31,2.29-1.7,4.63-2.13,11.24-2.51,13.58-7.54-1.13,3.6-5.18,4.93-8.35,6.2-2.28.99-5.27,1.47-6.85,3.43-2.39,6.17,12.26,1.45,14.75.59,1.55-.56,3.36-1.18,4.73-1.99,0,0,.9,1.4.9,1.4h0Z"/>
    </g>
    <polygon points="34.69 11.74 34.92 10.19 35.16 8.64 33.62 8.4 32.07 8.17 32.07 8.17 32.07 8.18 34.21 9.24 34.68 11.74 34.69 11.74 34.69 11.74"/>
    <path d="m29.49,0c.69,6.6-7.11,10.51-12.81,9.85,1.49-.14,2.94-.42,4.34-.87,4.11-1.35,7.85-4.45,8.47-8.98h0Z"/>
    <path d="m26.45,7.95c-.78,1.7-2.59,2.95-4.5,3.06-.9.01-1.83,0-2.74-.18-.91-.17-1.81-.5-2.55-1.04,3.4.82,7.17.81,9.79-1.83h0Z"/>
    <path d="m21.26,11.32c-1.37,1.25-3.57-.25-4.57-1.36,1.41.72,2.95,1.79,4.57,1.36h0Z"/>
    <path d="m12.82,9.48c-3.55-1.03-1.35-5.48,1.68-4.64.88.3,1.36,1.13,1.56,1.91-.38-.72-.93-1.38-1.67-1.55-1.42-.33-3.09,1.05-2.94,2.51.06.74.72,1.33,1.4,1.76,0,0-.01.02-.01.02,0,0-.01,0-.01,0h0Z"/>
    <path d="m10.77,6.54c-.56-.43-.77-1.02-1.02-1.61,0,0,.47.03.47.03.44.03.95.09,1.36.33-.46.2-.92.25-1.38.26l.28-.41c.19.43.33.88.29,1.41h0Z"/>
  </g>
</svg>