<svg width="89" height="27" viewBox="0 0 89 27" fill="none" xmlns="http://www.w3.org/2000/svg">
<path d="M79.5372 0.122114C78.9455 0.462727 78.6762 1.36371 78.9349 2.13756L85.2119 21.0911C73.3319 7.62138 58.0075 0.483332 42.2834 1.09418C26.5592 1.70531 11.5863 10.0216 0.341147 24.3903C-0.715643 25.7708 0.922523 27.9381 2.00031 26.5576C12.8368 12.6911 27.2796 4.67528 42.4428 4.1116C57.6059 3.54855 72.3746 10.4799 83.7958 23.5207L68.1554 22.941V22.9405C67.5502 22.9913 67.0742 23.6361 67.0576 24.4284C67.0411 25.2202 67.4897 25.8982 68.092 25.9918L87.8329 26.7233C88.2329 26.7206 88.6041 26.4519 88.8181 26.0106C89.0321 25.5689 89.059 25.0153 88.8897 24.5421L81.08 0.922669C80.8193 0.150218 80.1326 -0.206133 79.5371 0.121907L79.5372 0.122114Z" fill="#6D5BE0"/>
</svg>
