<svg width="42" height="39" viewBox="0 0 42 39" fill="none" xmlns="http://www.w3.org/2000/svg">
<path d="M31.2699 15.5269C31.2699 12.9976 30.188 10.5719 28.2619 8.78345C26.3358 6.99497 23.7234 5.99023 20.9997 5.99023C18.276 5.99023 15.6636 6.99494 13.7376 8.78345C11.8115 10.572 10.7295 12.9977 10.7295 15.5269C10.7295 18.056 11.8115 20.4818 13.7376 22.2703C15.6637 24.0588 18.276 25.0635 20.9997 25.0635C23.7225 25.0603 26.333 24.0545 28.258 22.2667C30.1833 20.479 31.2665 18.055 31.2699 15.5269ZM20.9995 23.4731C18.7369 23.4731 16.5671 22.6385 14.9669 21.1528C13.3669 19.6672 12.4681 17.6522 12.4681 15.5511C12.4681 13.45 13.3669 11.4353 14.9669 9.94938C16.5668 8.46365 18.7368 7.62905 20.9995 7.62905C23.2623 7.62905 25.4319 8.46365 27.0321 9.94938C28.6322 11.435 29.531 13.45 29.531 15.5511C29.5206 17.6491 28.6185 19.6584 27.0208 21.1421C25.4231 22.6257 23.259 23.4633 20.9998 23.4729L20.9995 23.4731Z" fill="#FF793F"/>
<path d="M23.7691 12.6324L20.0875 16.7335L18.1778 14.9664C17.962 14.766 17.6477 14.6878 17.3531 14.7612C17.0584 14.8344 16.8283 15.0481 16.7494 15.3218C16.6703 15.5954 16.7546 15.8873 16.9703 16.0876L19.5362 18.4702C19.6974 18.6219 19.9171 18.7075 20.1466 18.7079H20.1794C20.4205 18.7005 20.6471 18.5987 20.8028 18.4276L25.0815 13.6562C25.2773 13.4385 25.3331 13.1404 25.228 12.8741C25.1228 12.6079 24.8726 12.4139 24.5717 12.3653C24.2708 12.3167 23.9648 12.4209 23.769 12.6386L23.7691 12.6324Z" fill="#FF793F"/>
<path d="M37.1488 33.4295L31.5313 24.3256C31.8084 24.166 32.1122 24.0507 32.4303 23.9843C33.2337 23.8136 33.9251 23.3416 34.34 22.6803C34.7543 22.0176 34.8496 21.2238 34.6025 20.4926C34.4274 19.9781 34.4127 19.428 34.5603 18.9061C34.7078 18.3842 35.0113 17.9117 35.436 17.5433C36.043 17.024 36.3885 16.2927 36.3885 15.5263C36.3885 14.7598 36.043 14.0285 35.436 13.5092C35.0079 13.1429 34.7006 12.6712 34.5496 12.1492C34.3986 11.6272 34.4102 11.076 34.5829 10.5599C34.8284 9.82861 34.7334 9.03529 34.3208 8.37209C33.9081 7.70877 33.2155 7.23599 32.4107 7.06816C31.8445 6.94705 31.3265 6.68057 30.9158 6.29908C30.505 5.91773 30.218 5.43669 30.0875 4.91097C29.9068 4.1636 29.3977 3.52046 28.6833 3.13732C27.9691 2.75418 27.1148 2.66594 26.3273 2.89395C25.7711 3.05137 25.1784 3.06064 24.6169 2.92061C24.0553 2.78045 23.5473 2.49684 23.151 2.10177C22.5918 1.53809 21.8042 1.21729 20.9788 1.21729C20.1535 1.21729 19.3658 1.5381 18.8067 2.10177C18.4103 2.49684 17.9024 2.78047 17.3408 2.92061C16.7793 3.06064 16.1866 3.05137 15.6304 2.89395C14.8429 2.66594 13.9886 2.75417 13.2744 3.13732C12.56 3.52046 12.0509 4.1636 11.8701 4.91097C11.7397 5.43669 11.4527 5.91773 11.0419 6.29908C10.6312 6.68057 10.1132 6.94707 9.54699 7.06816C8.74213 7.23599 8.04952 7.70877 7.6369 8.37209C7.22429 9.03529 7.12926 9.82861 7.37481 10.5599C7.55227 11.0727 7.57005 11.6217 7.42608 12.1436C7.28211 12.6654 6.98228 13.1388 6.56106 13.5092C5.95402 14.0285 5.60853 14.7598 5.60853 15.5263C5.60853 16.2927 5.95402 17.024 6.56106 17.5433C6.9891 17.9096 7.29647 18.3813 7.44739 18.9033C7.59847 19.4253 7.58685 19.9765 7.41417 20.4926C7.16712 21.2238 7.26242 22.0176 7.67667 22.6803C8.0916 23.3416 8.78299 23.8136 9.58634 23.9843C9.90449 24.0507 10.2083 24.166 10.4854 24.3256L4.84832 33.4295C4.74168 33.6008 4.70805 33.8029 4.75385 33.9961C4.79951 34.1893 4.92147 34.3596 5.09565 34.4735C5.26983 34.5875 5.48352 34.6367 5.69488 34.6117L9.30408 34.1973L10.7478 37.2991C10.8092 37.4353 10.9108 37.5527 11.0408 37.6379C11.1708 37.7231 11.324 37.7725 11.4828 37.7805H11.5288C11.8375 37.7799 12.1225 37.6266 12.2769 37.3783L17.8681 28.3046C18.2307 28.4585 18.5564 28.6781 18.8263 28.9506C19.3855 29.5142 20.1731 29.835 20.9984 29.835C21.8238 29.835 22.6115 29.5142 23.1706 28.9506C23.4405 28.6781 23.7662 28.4585 24.1287 28.3046L29.72 37.3783C29.8743 37.6266 30.1594 37.7798 30.4681 37.7805H30.514C30.6729 37.7725 30.826 37.7231 30.9561 37.6379C31.0861 37.5527 31.1877 37.4353 31.2491 37.2991L32.6928 34.1973L36.302 34.6117C36.5134 34.6367 36.7271 34.5875 36.9012 34.4735C37.0754 34.3596 37.1974 34.1893 37.243 33.9961C37.2888 33.8029 37.2552 33.6008 37.1486 33.4295H37.1488ZM11.6404 35.2089L10.6232 33.0212C10.5487 32.8638 10.4219 32.7328 10.2612 32.6472C10.1006 32.5617 9.91463 32.5261 9.73075 32.5459L7.21733 32.8384L11.6732 25.5929C11.7686 25.7755 11.8413 25.9677 11.8897 26.1657C12.0705 26.913 12.5796 27.5562 13.294 27.9393C14.0082 28.3225 14.8625 28.4107 15.65 28.1827C15.7769 28.1463 15.9062 28.1178 16.0372 28.0974L11.6404 35.2089ZM21.9108 27.8964C21.6711 28.1249 21.3422 28.2539 20.9986 28.2539C20.6551 28.2539 20.3261 28.1249 20.0865 27.8964C19.1763 26.9826 17.8964 26.4633 16.5557 26.4644C16.0772 26.4646 15.6014 26.5324 15.1448 26.6655C14.8129 26.7619 14.4527 26.7254 14.1512 26.5645C13.8496 26.4037 13.6342 26.1332 13.5566 25.8184C13.3574 24.9979 12.912 24.2466 12.2722 23.6513C11.6322 23.056 10.8239 22.6412 9.94071 22.4547C9.60028 22.3894 9.3077 22.1891 9.14009 21.9062C8.96358 21.6282 8.92298 21.2935 9.02852 20.9861C9.29635 20.184 9.31536 19.3281 9.08321 18.5165C8.85106 17.7049 8.37719 16.9705 7.71604 16.3975C7.4612 16.1794 7.31613 15.8723 7.31613 15.5505C7.31613 15.2287 7.46119 14.9216 7.71604 14.7035C8.37709 14.1291 8.85081 13.3937 9.08296 12.5812C9.31498 11.7686 9.29611 10.9119 9.02855 10.1088C8.92683 9.80145 8.9673 9.46858 9.14025 9.19002C9.31334 8.91149 9.6033 8.7123 9.94074 8.64019C10.8234 8.45484 11.6316 8.04108 12.2715 7.44682C12.9115 6.85256 13.3571 6.10213 13.5567 5.28251C13.6305 4.96577 13.8453 4.6928 14.148 4.53134C14.4507 4.36986 14.8129 4.33507 15.1448 4.43549C16.0086 4.68419 16.9304 4.70184 17.8044 4.48627C18.6784 4.27071 19.4693 3.83068 20.0864 3.21676C20.3251 2.98659 20.6544 2.85659 20.9985 2.85659C21.3426 2.85659 21.672 2.98659 21.9107 3.21676C22.5277 3.83072 23.3186 4.27073 24.1927 4.48627C25.0667 4.70184 25.9885 4.68419 26.8522 4.43549C27.1842 4.33507 27.5464 4.36986 27.849 4.53134C28.1517 4.69283 28.3665 4.96577 28.4404 5.28251C28.64 6.10213 29.0856 6.85256 29.7255 7.44682C30.3655 8.04108 31.1737 8.45484 32.0563 8.64019C32.3937 8.7123 32.6837 8.91149 32.8568 9.19002C33.0298 9.46856 33.0702 9.80141 32.9685 10.1088C32.701 10.9119 32.6821 11.7686 32.9141 12.5812C33.1462 13.3937 33.62 14.1291 34.281 14.7035C34.5359 14.9216 34.6809 15.2287 34.6809 15.5505C34.6809 15.8723 34.5359 16.1794 34.281 16.3975C33.6198 16.9705 33.146 17.7049 32.9138 18.5165C32.6817 19.3281 32.7007 20.184 32.9685 20.9861C33.0741 21.2936 33.0335 21.6282 32.857 21.9062C32.6894 22.1891 32.3968 22.3894 32.0563 22.4547C31.1732 22.6412 30.3649 23.056 29.7249 23.6513C29.0851 24.2466 28.6396 24.9979 28.4404 25.8184C28.3629 26.1333 28.1474 26.4037 27.8458 26.5645C27.5444 26.7254 27.1841 26.7619 26.8523 26.6655C26.0695 26.4407 25.2372 26.4093 24.4373 26.574H24.3651C23.4254 26.7685 22.5703 27.2207 21.9107 27.872L21.9108 27.8964ZM32.2666 32.5702C32.0829 32.5514 31.8973 32.5873 31.737 32.6728C31.5765 32.7582 31.4494 32.8887 31.3741 33.0455L30.3569 35.2332L25.9602 28.0975C26.0849 28.0975 26.2162 28.1462 26.3474 28.1828C27.1349 28.4108 27.9893 28.3225 28.7035 27.9394C29.4178 27.5563 29.927 26.9131 30.1077 26.1657C30.1561 25.9678 30.2288 25.7756 30.3243 25.5929L34.813 32.8629L32.2666 32.5702Z" fill="#FF793F"/>
</svg>
