<svg width="223" height="72" viewBox="0 0 223 72" fill="none" xmlns="http://www.w3.org/2000/svg">
<g clip-path="url(#clip0_519_28)">
<path d="M31.5536 28.3396L23.4654 46.1365L21.2436 29.3842C16.9559 29.655 12.6292 29.7518 8.28302 29.7711L3.74194 57.7819H10.8167L14.7146 33.8915L17.7355 57.7819H25.4923L36.3675 33.8915L32.4696 57.7819H39.5443L44.8065 25.2832C40.5383 26.6953 36.0947 27.6626 31.5536 28.3396Z" fill="white"/>
<path d="M76.9255 29.9839H69.8508L69.3635 33.0597C68.2331 31.0478 65.4071 29.5196 61.9964 29.5196C53.5574 29.5196 46.7361 37.1413 46.7361 46.4654C46.7361 53.9903 51.4721 58.2655 57.3189 58.2655C60.6906 58.2655 64.0429 56.7759 65.8554 54.7254L66.3036 57.8012H74.1969L73.3199 52.3461L76.9255 30.0032V29.9839ZM59.7551 51.0693C56.247 51.0693 54.1032 48.6319 54.1032 45.3047C54.1032 40.6427 57.7672 36.7738 62.0939 36.7738C65.563 36.7738 67.7459 39.2692 67.7459 42.5965C67.7459 47.1424 64.0818 51.0693 59.7551 51.0693Z" fill="white"/>
<path d="M83.3179 29.9839H90.4901L89.7105 34.5879L99.2604 29.3455L97.8376 37.7604L88.4242 42.3643L85.9295 57.7818H78.7573L83.2984 29.9839H83.3179Z" fill="white"/>
<path d="M105.127 18.59H112.202L109.025 38.3987H111.754L118.536 29.9839H126.819L116.977 42.5384L122.434 57.7819H114.638L110.682 46.2332H107.7L105.848 57.7819H98.7734L105.108 18.59H105.127Z" fill="white"/>
<path d="M130.112 29.9839H137.187L132.646 57.7819H125.571L130.112 29.9839ZM135.764 16.6362C138.006 16.6362 139.526 18.1644 139.526 20.4471C139.526 23.5229 137.09 26.057 134.264 26.057C132.022 26.057 130.502 24.5288 130.502 22.2461C130.502 19.2284 132.899 16.6362 135.764 16.6362Z" fill="white"/>
<path d="M144.165 37.1413H140.072L141.241 29.9839H145.49L146.523 23.4648H153.442L152.409 29.9839H158.509L157.34 37.1413H151.239L149.095 50.3729H155.293L154.065 57.7818H140.793L144.165 37.122V37.1413Z" fill="white"/>
<path d="M163.97 35.6131H160.126L161.296 29.0553H165.35L167.201 18.6093H178.856L177.725 24.9156H172.99L172.249 29.036H178.193L177.024 35.5938H171.08L165.564 65.6744H158.489L163.4 35.6131H163.97Z" stroke="white" stroke-width="2" stroke-miterlimit="10"/>
<path d="M184.41 18.59H191.485L185.151 57.7819H178.076L184.41 18.59Z" stroke="white" stroke-width="2" stroke-miterlimit="10"/>
<path d="M199.164 57.1435L196.416 43.5637L193.668 29.9839H201.464L203.082 39.3079L204.699 48.6319L209.085 39.3079L213.47 29.9839H222.045L211.657 49.9473L204.641 68.3439C203.939 70.201 202.127 71.439 200.119 71.4197H194.701L94.4272 70.4331L194.584 66.3127C195.5 66.3127 196.299 65.7131 196.592 64.8426L199.164 57.1435Z" stroke="white" stroke-width="2" stroke-miterlimit="10"/>
<path d="M48.6654 19.3251C41.3763 23.0199 12.8241 31.9377 7.38647 24.3353C6.27557 22.4589 6.68485 20.4084 7.63984 18.5513C8.80921 16.8103 10.5243 16.0172 12.103 15.2628C21.1266 11.1424 34.0093 10.4073 38.5698 0.677063C36.3675 7.64106 28.4742 10.2139 22.296 12.6706C17.8524 14.5857 12.025 15.5142 8.94564 19.3058C4.28763 31.2413 32.8399 22.1107 37.6928 20.4471C40.7137 19.3638 44.2413 18.1644 46.9114 16.5975L48.6654 19.3058V19.3251Z" fill="white"/>
<path d="M48.5875 22.7104L49.0553 19.712L49.5035 16.7136L46.5021 16.2493L43.5007 15.8044V15.8238L47.6715 17.8743L48.5875 22.7104Z" fill="white"/>
<path d="M38.4725 0C39.8173 12.7673 24.6154 20.331 13.5063 19.0543C16.4103 18.7835 19.2363 18.2418 21.9648 17.3713C29.9751 14.7598 37.2642 8.76303 38.4725 0Z" fill="white"/>
<path d="M32.5476 15.3788C31.0274 18.6674 27.4998 21.0854 23.7773 21.2982C22.0232 21.3176 20.2107 21.2982 18.4371 20.95C16.6636 20.6212 14.9095 19.9828 13.4673 18.9382C20.0937 20.5244 27.4413 20.5051 32.5476 15.3982V15.3788Z" fill="white"/>
<path d="M22.4131 21.8979C19.743 24.316 15.4553 21.4143 13.5063 19.2671C16.2544 20.6599 19.2558 22.7297 22.4131 21.8979Z" fill="white"/>
<path d="M5.98335 18.3385C-0.935454 16.346 3.35226 7.73776 9.25761 9.36269C10.9727 9.94303 11.9082 11.5486 12.298 13.0575C11.5574 11.6647 10.4855 10.3879 9.04322 10.0591C6.2757 9.42073 3.02094 12.0903 3.31328 14.9145C3.43022 16.346 4.71653 17.4874 6.04182 18.3192L6.02233 18.3579H6.00284L5.98335 18.3385Z" fill="white"/>
<path d="M1.98794 12.6513C0.896522 11.8194 0.48724 10.6781 0 9.5368L0.916011 9.59484C1.77355 9.65287 2.76752 9.76894 3.5666 10.2332C2.67008 10.6201 1.77355 10.7168 0.877032 10.7362L1.42274 9.94304C1.79304 10.7748 2.0659 11.6453 1.98794 12.6706V12.6513Z" fill="white"/>
</g>
<defs>
<clipPath id="clip0_519_28">
<rect width="223" height="72" fill="white"/>
</clipPath>
</defs>
</svg>
