<svg width="26" height="24" viewBox="0 0 26 24" fill="none" xmlns="http://www.w3.org/2000/svg">
<path d="M12.6137 0.000697918C12.4408 -0.0021079 12.2661 0.00409429 12.0927 0.00955848C11.6965 0.0218156 11.2985 0.0498743 10.9021 0.0989037C4.07014 0.943469 -0.776732 6.97754 0.103157 13.5356C0.983202 20.0933 7.26988 24.7455 14.1018 23.901C20.9337 23.0564 25.7806 17.0223 24.9007 10.4643C24.8456 10.0594 24.5701 9.71323 24.1772 9.55638C23.7844 9.39955 23.3344 9.45566 22.9964 9.70361C22.6583 9.95156 22.4837 10.3538 22.5383 10.7587C23.2539 16.0915 19.3508 20.9465 13.795 21.633C8.23917 22.3198 3.18119 18.5734 2.46593 13.2407C1.75036 7.90787 5.65346 3.05294 11.2093 2.3664C13.7768 2.04904 16.3732 2.68774 18.4646 4.15193C18.8085 4.39279 19.2602 4.43931 19.6494 4.27377C20.0387 4.10837 20.3064 3.75618 20.3516 3.34977C20.397 2.94352 20.213 2.54479 19.8691 2.30393C17.7503 0.820387 15.2088 0.0233054 12.6137 0.000697918Z" fill="#5744CD"/>
<path d="M12.3902 0.000697918C12.5632 -0.0021079 12.7378 0.00409429 12.9112 0.00955848C13.3074 0.0218156 13.7054 0.0498743 14.1018 0.0989037C20.9338 0.943469 25.7806 6.97754 24.9007 13.5356C24.0207 20.0933 17.734 24.7455 10.9021 23.901C4.07016 23.0564 -0.776708 17.0223 0.10318 10.4643C0.158258 10.0594 0.433807 9.71323 0.826748 9.55638C1.21953 9.39955 1.66953 9.45566 2.00755 9.70361C2.34556 9.95156 2.5202 10.3538 2.46557 10.7587C1.75 16.0915 5.6531 20.9465 11.2089 21.633C16.7647 22.3198 21.8227 18.5734 22.538 13.2407C23.2535 7.90787 19.3504 3.05294 13.7946 2.3664C11.2271 2.04904 8.6307 2.68774 6.53929 4.15193C6.19543 4.39279 5.74372 4.43931 5.35447 4.27377C4.96522 4.10837 4.69751 3.75618 4.65229 3.34977C4.60691 2.94352 4.79091 2.54479 5.13478 2.30393C7.25364 0.820387 9.79507 0.0233054 12.3902 0.000697918Z" fill="#5744CD"/>
</svg>
