<svg width="222" height="37" viewBox="0 0 222 37" fill="none" xmlns="http://www.w3.org/2000/svg">
<path d="M21.0298 0.105469L27.1731 10.8102L40.91 12.5268L30.9699 20.8593L33.3165 32.625L21.0298 27.07L8.74313 32.625L11.0897 20.8593L1.14955 12.5268L14.8865 10.8102L21.0298 0.105469Z" fill="#FFE600"/>
<path d="M65.9336 0.105469L72.0769 10.8102L85.8139 12.5268L75.8737 20.8593L78.2203 32.625L65.9336 27.07L53.6469 32.625L55.9935 20.8593L46.0534 12.5268L59.7903 10.8102L65.9336 0.105469Z" fill="#FFE600"/>
<path d="M110.836 0.105469L116.98 10.8102L130.717 12.5268L120.777 20.8593L123.123 32.625L110.836 27.07L98.5498 32.625L100.896 20.8593L90.9562 12.5268L104.693 10.8102L110.836 0.105469Z" fill="#FFE600"/>
<path d="M155.74 0.105469L161.884 10.8102L175.62 12.5268L165.68 20.8593L168.027 32.625L155.74 27.07L143.454 32.625L145.8 20.8593L135.86 12.5268L149.597 10.8102L155.74 0.105469Z" fill="#FFE600"/>
<path d="M200.643 0.105469L206.786 10.8102L220.523 12.5268L210.583 20.8593L212.93 32.625L200.643 27.07L188.356 32.625L190.703 20.8593L180.763 12.5268L194.5 10.8102L200.643 0.105469Z" fill="#FFE600"/>
</svg>
