<svg width="28" height="24" viewBox="0 0 28 24" fill="none" xmlns="http://www.w3.org/2000/svg">
<path d="M12.6137 0.000697918C12.4408 -0.0021079 12.2661 0.00409429 12.0927 0.00955848C11.6965 0.0218157 11.2985 0.0498743 10.9021 0.0989037C4.07014 0.943469 -0.776732 6.97754 0.103157 13.5356C0.983202 20.0933 7.26988 24.7456 14.1018 23.901C20.9337 23.0564 25.7806 17.0224 24.9007 10.4643L24.9009 10.4642C24.8458 10.0592 24.5701 9.71323 24.1772 9.55638C23.7844 9.39955 23.3344 9.45566 22.9964 9.70361C22.6583 9.95156 22.4837 10.3538 22.5383 10.7587C23.2539 16.0915 19.3508 20.9465 13.795 21.633C8.23917 22.3198 3.18119 18.5734 2.46593 13.2407C1.75036 7.90787 5.65346 3.05294 11.2093 2.3664C13.7768 2.04904 16.3732 2.68774 18.4646 4.15193V4.15208C18.8085 4.39294 19.2602 4.43931 19.6494 4.27377C20.0387 4.10837 20.3064 3.75618 20.3516 3.34977C20.397 2.94352 20.213 2.54479 19.8691 2.30393C17.7503 0.820387 15.209 0.0230781 12.6138 0.000470635L12.6137 0.000697918ZM26.7427 0.554202H26.7429C26.4304 0.568379 26.1364 0.699812 25.9242 0.920291C22.7933 4.06462 17.0351 10.0748 13.6089 13.5445L9.42335 10.0002C9.10442 9.72903 8.65887 9.6419 8.25484 9.77156C7.85066 9.90108 7.54928 10.2279 7.4642 10.6285C7.37912 11.0293 7.52313 11.4433 7.84222 11.7144L12.9022 16H12.902C13.1336 16.1968 13.4359 16.2995 13.745 16.2862C14.0541 16.2729 14.3454 16.1446 14.5578 15.9287C17.8878 12.5845 24.3697 5.79917 27.6545 2.50067H27.6543C27.8819 2.28064 28.0066 1.98131 27.9997 1.6713C27.993 1.36148 27.8553 1.06744 27.6183 0.85687C27.3812 0.646137 27.0654 0.537005 26.7429 0.554281L26.7427 0.554202Z" fill="#4533B5"/>
</svg>
